<?xml version="1.0" encoding="utf-8"?>
<!-- Generator: Adobe Illustrator 19.2.0, SVG Export Plug-In . SVG Version: 6.00 Build 0)  -->
<svg version="1.1" id="Layer_1" xmlns="http://www.w3.org/2000/svg" xmlns:xlink="http://www.w3.org/1999/xlink" x="0px" y="0px"
	 viewBox="0 0 512 512" style="enable-background:new 0 0 512 512;" xml:space="preserve">
<path d="M127.9,288.5l-58.3,29.1c-2.7,1.3-5.8-0.6-5.8-3.6v-51.4c0-3.8,2.1-7.3,5.5-8.9l58.5-29.2V42c0-5.5,4.5-10,10-10h44.4
	c5.5,0,10,4.5,10,10v150.4l57.7-29.4c2.7-1.4,5.8,0.6,5.8,3.6v52c0,3.8-2.1,7.3-5.5,9l-58,28.9v191.3h159.6l0-53.8
	c0-5.5,4.5-10,10-10h44.5c5.5,0,10,4.5,10,10v108.2c0,5.5-4.5,10-10,10H137.9c-5.5,0-10-4.5-10-10V288.5z"/>
</svg>
