<?xml version="1.0" encoding="utf-8"?>
<!-- Generator: Adobe Illustrator 19.2.0, SVG Export Plug-In . SVG Version: 6.00 Build 0)  -->
<svg version="1.1" id="Layer_1" xmlns="http://www.w3.org/2000/svg" xmlns:xlink="http://www.w3.org/1999/xlink" x="0px" y="0px"
	 viewBox="0 0 512 512" style="enable-background:new 0 0 512 512;" xml:space="preserve">
<path d="M303.9,320.2c79.5,0,144.1-64.7,144.1-144.1S383.3,32,303.9,32H191.6v-0.1h-52c-6.6,0-11.7,5.2-11.7,11.7V256H75.2
	c-6.6,0-11.7,5.2-11.7,11.7v40.7c0,6.6,5.2,11.7,11.7,11.7H128v31.8H75.2c-6.6,0-11.7,5.2-11.7,11.7v40.7c0,6.7,5.2,11.7,11.7,11.7
	h52.6v84.4c0,6.6,5.2,11.7,11.7,11.7H180c6.7,0,11.7-5.2,11.7-11.7V416H308c6.6,0,11.7-5.2,11.7-11.7v-40.7
	c0-6.7-5.2-11.7-11.7-11.7H191.7v-31.7H303.9z M303.9,96c44.2,0,80.1,35.9,80.1,80.1s-35.9,80.1-80.1,80.1H191.7l0-160.2H303.9z"/>
</svg>
