<?xml version="1.0" encoding="utf-8"?>
<!-- Generator: Adobe Illustrator 19.2.0, SVG Export Plug-In . SVG Version: 6.00 Build 0)  -->
<svg version="1.1" id="Layer_1" xmlns="http://www.w3.org/2000/svg" xmlns:xlink="http://www.w3.org/1999/xlink" x="0px" y="0px"
	 viewBox="0 0 512 512" style="enable-background:new 0 0 512 512;" xml:space="preserve">
<path d="M380.5,310.6c-2.5-8.2-5.4-15.3-8.9-21.3s-8.5-11.9-14.9-17.7c-6.5-5.8-12.3-10.5-17.5-14c-5.1-3.5-12.2-7.5-21.3-11.8
	c-9-4.4-16.2-7.6-21.4-9.8s-12.8-5.1-22.8-8.8c-8.8-3.3-15.4-5.9-19.7-7.6s-10-4.3-17.1-7.5c-7-3.2-12.3-6.2-15.8-8.6
	c-3.5-2.5-7.2-5.6-11.2-9.2s-6.7-7.5-8.3-11.5c-1.6-4.1-2.4-8.6-2.4-13.4c0-12.6,5.6-23,16.9-31s25.9-12,43.7-12
	c7.9,0,15.9,1.1,24.1,3.2s15.2,4.6,21,7.2c5.8,2.7,11.4,5.7,16.5,8.9c5.1,3.2,8.8,5.8,11,7.4s3.6,2.8,4,3.3c2.5,1.9,4.9,2.5,7.6,2
	c2.9-0.2,4.9-1.7,6.5-4.5l22.8-40.8c2.3-3.7,1.8-7.2-1.4-10.6c-1.1-1.1-2.6-2.4-4.2-3.9c-1.7-1.5-5.3-4.2-11-8.1
	c-5.6-3.9-11.7-7.4-17.9-10.5c-6.3-3-14.5-6.2-24.5-9.4c-8.5-2.6-17.2-4.6-26.1-5.8V10c0-5.5-4.5-10-10-10H234c-5.5,0-10,4.5-10,10
	v55.8c-28.1,5.9-51,18.1-68.7,36.8c-18.5,19.4-27.6,41.9-27.6,67.6c0,7.6,0.8,14.9,2.4,21.8c1.6,6.8,3.6,13.1,5.9,18.6
	c2.4,5.5,5.7,10.9,10,16.2c4.3,5.3,8.4,9.9,12.2,13.7c3.9,3.8,8.9,7.7,15.1,11.8s11.6,7.4,15.9,9.9c4.4,2.5,10.3,5.4,17.6,8.6
	c7.3,3.2,13.1,5.8,17.4,7.4c4.2,1.7,10,4,17.4,6.9c10.2,3.9,17.7,6.9,22.5,9.1c4.9,2.2,11.1,5.1,18.6,8.9c7.5,3.8,13,7.3,16.5,10.5
	c3.5,3.1,6.6,7,9.5,11.7c2.9,4.7,4.2,9.6,4.2,14.8c0,14.7-5.8,26-17.4,34c-11.6,8-25,12-40.2,12c-6.9,0-13.9-0.8-20.8-2.2
	c-24.4-4.9-47.3-16.5-68.5-34.9l-0.6-0.6c-1.7-2.1-3.9-2.8-6.8-2.5c-3,0.4-5.1,1.5-6.5,3.3l-29,37.7c-2.9,3.7-2.7,7.5,0.6,11.4
	c1,1.1,2.6,2.8,4.9,5c2.4,2.2,6.7,5.8,13.1,10.5c6.4,4.8,13.3,9.2,20.8,13.4c7.5,4.2,17.1,8.3,28.6,12.4c10.6,3.8,21.6,6.5,33,8.2
	V502c0,5.5,4.5,10,10,10h44.3c5.5,0,10-4.5,10-10v-54.8c27.5-5.4,50-17.8,67.6-37.2c18.7-20.5,28-45.1,28-73.6
	C384.2,327.5,383,318.8,380.5,310.6z"/>
</svg>
