<?xml version="1.0" encoding="utf-8"?>
<!-- Generator: Adobe Illustrator 19.2.0, SVG Export Plug-In . SVG Version: 6.00 Build 0)  -->
<svg version="1.0" id="Layer_1" xmlns="http://www.w3.org/2000/svg" xmlns:xlink="http://www.w3.org/1999/xlink" x="0px" y="0px"
	 viewBox="0 0 512 512" style="enable-background:new 0 0 512 512;" xml:space="preserve">
<style type="text/css">
	.st0{fill:#1D1D1B;}
</style>
<path class="st0" d="M229.8,479.9c-5.7,0-10.2-4.5-10.2-10.2v-105H128c-5.7,0-10.2-4.5-10.2-10.2v-32.8c0-5.7,4.5-10.2,10.2-10.2
	h91.6v-27H128c-5.7,0-10.2-4.5-10.2-10.2v-33.1c0-5.4,4.5-10.2,10.2-10.2h68.1L94,47.3c-1.6-3.2-1.6-7,0-10.2
	c1.9-3.2,5.4-5.1,8.9-5.1h61.7c3.8,0,7.3,2.2,9.2,5.7L242.2,173c7.6,15,12.7,27.7,17.8,39.8c5.4-13.7,12.4-27,18.4-41l60.8-133.6
	c1.6-3.8,5.4-6,9.2-6h60.8c3.5,0,6.7,1.9,8.6,5.1c1.9,2.9,1.9,6.7,0.3,9.9l-99.6,184.2h68.4c5.7,0,10.2,4.8,10.2,10.2v33.1
	c0,5.7-4.5,10.2-10.2,10.2h-92.2v27h92.2c5.7,0,10.2,4.5,10.2,10.2v32.8c0,5.7-4.5,10.2-10.2,10.2h-92.2v105
	c0,5.7-4.8,10.2-10.2,10.2H229.8z"/>
</svg>
