<?xml version="1.0" encoding="utf-8"?>
<!-- Generator: Adobe Illustrator 19.2.0, SVG Export Plug-In . SVG Version: 6.00 Build 0)  -->
<svg version="1.1" id="Layer_1" xmlns="http://www.w3.org/2000/svg" xmlns:xlink="http://www.w3.org/1999/xlink" x="0px" y="0px"
	 viewBox="0 0 512 512" style="enable-background:new 0 0 512 512;" xml:space="preserve">
<style type="text/css">
	.st0{fill:#1D1D1B;}
</style>
<path class="st0" d="M406.1,384h-44c-5.5,0-10,4.5-10,10v54H246.2h-54.1V288h86.2c5.5,0,10-4.5,10-10v-44c0-5.5-4.5-10-10-10h-86.2
	v-82.7c0-7.6,5.2-17.4,13.5-25.5c13.3-13,32-20.2,51.3-19.7c28.9,0.7,51.8,15.4,62.5,23.7c3.9,3.1,9.6,2.8,13.1-0.7l31.6-30.9
	c4.3-4.1,4-11-0.6-14.9C347.6,60,309.6,33.4,258.4,32.2c-36.4-0.9-72,12.9-97.6,37.9C140,90.4,128,116.4,128,141.4V224h-22.2
	c-5.5,0-10,4.5-10,10v44c0,5.5,4.5,10,10,10H128v160H73.8c-5.5,0-10,4.5-10,10v44c0,5.5,4.5,10,10,10h54.4h118.1h159.9
	c5.5,0,10-4.5,10-10V394C416.1,388.5,411.6,384,406.1,384z"/>
</svg>
