<?xml version="1.0" encoding="utf-8"?>
<!-- Generator: Adobe Illustrator 19.2.0, SVG Export Plug-In . SVG Version: 6.00 Build 0)  -->
<svg version="1.1" id="Layer_1" xmlns="http://www.w3.org/2000/svg" xmlns:xlink="http://www.w3.org/1999/xlink" x="0px" y="0px"
	 viewBox="0 0 512 512" style="enable-background:new 0 0 512 512;" xml:space="preserve">
<path d="M360.3,409.6c-2.3-4.8-7.9-7-12.8-5c-18.9,7.6-38.9,11.4-59.5,11.4c-65.5,0-121.9-39.5-146.6-96h108.4
	c3.8,0,7.3-2.1,8.9-5.5l22-44c3.3-6.6-1.5-14.5-8.9-14.5H128c0-11,1.1-21.7,3.2-32h150.6c3.8,0,7.3-2.1,8.9-5.5l22-44
	c3.3-6.6-1.5-14.5-8.9-14.5H160.1c29.2-38.8,75.7-64,127.9-64c20.7,0,40.7,3.8,59.5,11.4c4.9,2,10.5-0.2,12.8-5l18.8-39.8
	c2.4-5.2,0.1-11.3-5.2-13.5C346.7,37.7,317.9,32,288,32c-59.8,0-116.1,23.3-158.4,65.6C111.2,116,96.3,137.1,85.5,160H10
	c-5.5,0-10,4.5-10,10v44c0,5.5,4.5,10,10,10h56.3c-1.5,10.5-2.3,21.2-2.3,32H10c-5.5,0-10,4.5-10,10v44c0,5.5,4.5,10,10,10h63.2
	c10.5,35.3,29.6,67.6,56.4,94.4C171.9,456.7,228.2,480,288,480c29.9,0,58.7-5.7,86-17.1c5.3-2.2,7.6-8.3,5.2-13.5L360.3,409.6z"/>
</svg>
