<?xml version="1.0" encoding="utf-8"?>
<!-- Generator: Adobe Illustrator 19.2.0, SVG Export Plug-In . SVG Version: 6.00 Build 0)  -->
<svg version="1.1" id="Layer_1" xmlns="http://www.w3.org/2000/svg" xmlns:xlink="http://www.w3.org/1999/xlink" x="0px" y="0px"
	 viewBox="0 0 512 512" style="enable-background:new 0 0 512 512;" xml:space="preserve">
<path d="M471.2,282c-20-16.5-44.9-25.5-71.2-25.5c-17.2,0-33.5,3.9-48,10.8l0-33.3c0-5.5-4.5-10-10-10H160V96h128l0,22
	c0,5.5,4.5,10,10,10h44c5.5,0,10-4.5,10-10V96V42c0-5.5-4.5-10-10-10H106c-5.5,0-10,4.5-10,10v428c0,5.5,4.5,10,10,10h44
	c5.5,0,10-4.5,10-10V288h128v182c0,5.5,4.5,10,10,10h43.9c5.5,0,10-4.5,10-10l0.1-101.5h0.1c0-26.5,21.5-48,48-48
	c10,0,19.6,3.1,27.6,8.7c4,2.8,9.4,2.3,12.8-1.1l31.4-31.4C475.9,292.6,475.7,285.7,471.2,282z"/>
</svg>
