<?xml version="1.0" encoding="utf-8"?>
<!-- Generator: Adobe Illustrator 19.2.0, SVG Export Plug-In . SVG Version: 6.00 Build 0)  -->
<svg version="1.1" id="Layer_1" xmlns="http://www.w3.org/2000/svg" xmlns:xlink="http://www.w3.org/1999/xlink" x="0px" y="0px"
	 viewBox="0 0 512 512" style="enable-background:new 0 0 512 512;" xml:space="preserve">
<path d="M416,336c0-29.9-11.6-57.9-32.7-78.9c-6-6-12.7-11.3-19.7-15.7c13.1-18.4,20.8-40.8,20.8-65.1c0-44.8-26.4-83.5-64.4-101.5
	V10c0-5.5-4.5-10-10-10h-44c-5.5,0-10,4.5-10,10v54h-64V10c0-5.5-4.5-10-10-10h-44c-5.5,0-10,4.5-10,10v54H74c-5.5,0-10,4.5-10,10
	v44c0,5.5,4.5,10,10,10h54v256H74c-5.5,0-10,4.5-10,10v44c0,5.5,4.5,10,10,10h54v54.3c0,5.5,4.5,10,10,10h44c5.5,0,10-4.5,10-10
	v-54.5h64v54.5c0,5.5,4.5,10,10,10h44c5.5,0,10-4.5,10-10v-55.5C374.2,439.2,416,392.4,416,336z M272.2,224.5H192V128h80.2
	c26.6,0,48.2,21.6,48.2,48.2S298.8,224.5,272.2,224.5z M304.5,383.8H192v-95.3h112.5c26.2,0,47.5,21.3,47.5,47.5
	C352,362.4,330.7,383.8,304.5,383.8z"/>
</svg>
